<svg xmlns="http://www.w3.org/2000/svg" width="275" height="275" viewBox="0 0 275 275">
  <g id="Group_42" data-name="Group 42" transform="translate(-44 -23)">
    <g id="Ellipse_3" data-name="Ellipse 3" transform="translate(44 23)" fill="none" stroke="gray" stroke-width="3">
      <circle cx="137.5" cy="137.5" r="137.5" stroke="none"/>
      <circle cx="137.5" cy="137.5" r="136" fill="none"/>
    </g>
    <g id="loupe" transform="translate(134.871 113.669)">
      <g id="Group_35" data-name="Group 35">
        <g id="Group_34" data-name="Group 34">
          <path id="Path_36" data-name="Path 36" d="M44.681,0A44.681,44.681,0,1,0,89.362,44.681,44.732,44.732,0,0,0,44.681,0Zm0,81.113A36.432,36.432,0,1,1,81.113,44.681,36.474,36.474,0,0,1,44.681,81.113Z" fill="#fff"/>
        </g>
      </g>
      <g id="Group_37" data-name="Group 37" transform="translate(69.565 69.565)">
        <g id="Group_36" data-name="Group 36">
          <path id="Path_37" data-name="Path 37" d="M373.841,369.824l-17.565-17.866a3.026,3.026,0,0,0-4.332,0,3.152,3.152,0,0,0,0,4.406l17.565,17.866a3.026,3.026,0,0,0,4.332,0A3.152,3.152,0,0,0,373.841,369.824Z" transform="translate(-351.046 -351.046)" fill="#fff"/>
        </g>
      </g>
    </g>
  </g>
</svg>
